:SAMPLES-PER-SECOND 30
:FULLY-SPECIFIED
:DEGREES
219
root  -8.65053 34.6813 -31.6001 -165.826 66.6709 -173.673
RightUpLeg  -8.04122 -13.3013 -4.34926
RightLeg  6.9145 2.66174 0.15139
RightFoot  9.51008 -0.00442064 0.572406
RightToes  -38.584 -0.207271 -0.306984
Spine  -2.0938 -0.151767 -0.739268
Spine1  -4.16457 -0.254193 -0.691186
HEad  -75.2001 -21.3754 11.1076
LeftShoulder1  -1.94126e-019 -3.10601e-018 -2.51263e-017
LeftArm  17.2256 26.8147 -70.1056
LeftForeArm  50.5575 -75.1994 -40.1465
LeftHand  -0.0323469 -3.57811 0.671222
RightShoulder  -4.96962e-017 0 -2.36833e-017
RightArm  13.0755 -26.7693 73.8358
RightForeArm  69.0183 74.7701 33.2774
RightHand  -0.0813505 1.11167 -1.56642
LeftUpLeg  -9.12843 16.27 -3.26203
LeftLeg  17.0383 27.9948 6.35711
LeftFoot  -5.46268 -0.142104 -2.81641
LeftToes  -1.88515 2.25955e-006 -3.67304e-008
220
root  -8.53843 34.7024 -31.3899 -165.558 68.4324 -173.9
RightUpLeg  -6.51547 -14.9751 -4.10479
RightLeg  2.28384 5.94785 -0.143947
RightFoot  10.569 -0.0651313 1.2061
RightToes  -38.5201 -0.20677 -0.306611
Spine  -2.27489 0.111601 -0.80848
Spine1  -4.5326 0.25495 -0.833356
HEad  -75.3457 -20.7208 11.0446
LeftShoulder1  -1.94126e-019 -3.10601e-018 -2.51263e-017
LeftArm  16.7619 29.2138 -69.0268
LeftForeArm  52.8189 -75.7538 -42.0238
LeftHand  -0.0304424 -3.66589 0.64631
RightShoulder  -4.96962e-017 0 -2.36833e-017
RightArm  13.1585 -26.8409 74.0697
RightForeArm  68.4991 74.4819 32.4986
RightHand  -0.0720732 1.31194 -1.37672
LeftUpLeg  -8.78052 16.3765 -3.44463
LeftLeg  15.6653 29.5853 5.98049
LeftFoot  -4.73504 -0.113462 -2.58217
LeftToes  -2.3578 2.25955e-006 -3.67304e-008
221
root  -8.40553 34.7428 -31.1561 -165.692 70.4062 -174.425
RightUpLeg  -5.75948 -14.238 -3.82202
RightLeg  -0.672165 6.40986 -0.486752
RightFoot  11.4347 -0.0888401 1.38694
RightToes  -35.4732 -0.183369 -0.28815
Spine  -2.43519 0.415898 -0.967566
Spine1  -4.85812 0.854823 -1.09032
HEad  -75.4917 -20.0206 10.8893
LeftShoulder1  -1.94126e-019 -3.10601e-018 -2.51263e-017
LeftArm  15.2309 31.5148 -68.3183
LeftForeArm  54.0719 -76.1135 -43.4701
LeftHand  -0.0548519 -3.51051 0.96562
RightShoulder  -4.96962e-017 0 -2.36833e-017
RightArm  12.863 -26.8554 74.4625
RightForeArm  67.6215 73.9875 31.2498
RightHand  -0.0982869 1.13604 -1.86521
LeftUpLeg  -7.8607 17.2265 -3.64579
LeftLeg  13.245 30.6855 4.91242
LeftFoot  -3.71923 -0.0726076 -2.0744
LeftToes  -3.26957 2.25955e-006 -3.67304e-008
222
root  -8.31276 34.7407 -30.8968 -166.102 71.9902 -175.168
RightUpLeg  -6.80121 -13.6117 -3.65676
RightLeg  0.210726 6.95179 -0.419992
RightFoot  10.7753 -0.0926152 1.41295
RightToes  -35.0124 -0.179916 -0.28525
Spine  -2.55684 0.482854 -1.19408
Spine1  -5.09949 1.005 -1.29899
HEad  -75.6254 -18.9318 10.7872
LeftShoulder1  -1.94126e-019 -3.10601e-018 -2.51263e-017
LeftArm  12.9772 33.5017 -67.9188
LeftForeArm  55.2112 -76.459 -45.0498
LeftHand  -0.108403 -3.42802 1.6751
RightShoulder  -4.96962e-017 0 -2.36833e-017
RightArm  12.5955 -26.5001 74.7809
RightForeArm  67.4593 73.8115 30.8049
RightHand  -0.110169 0.737406 -2.17314
LeftUpLeg  -7.23157 17.4191 -3.82805
LeftLeg  11.5754 31.7274 4.16875
LeftFoot  -4.00726 -0.0875148 -2.33954
LeftToes  -2.50282 2.25955e-006 -3.67304e-008
223
root  -8.22988 34.7467 -30.621 -165.565 73.4464 -174.839
RightUpLeg  -7.18128 -12.2072 -3.30937
RightLeg  -0.0071188 7.08565 -0.455058
RightFoot  10.8348 -0.0928664 1.44442
RightToes  -35.6928 -0.183806 -0.288482
Spine  -2.62017 0.605528 -1.12543
Spine1  -5.22782 1.23986 -1.22808
HEad  -75.7615 -18.0333 10.5494
LeftShoulder1  -1.94126e-019 -3.10601e-018 -2.51263e-017
LeftArm  10.6906 34.9254 -68.155
LeftForeArm  54.7912 -76.4155 -44.9336
LeftHand  -0.151923 -3.26816 2.27934
RightShoulder  -4.96962e-017 0 -2.36833e-017
RightArm  12.1105 -26.1099 74.664
RightForeArm  67.6937 73.9937 31.2625
RightHand  -0.111796 0.550332 -2.25457
LeftUpLeg  -6.91745 16.7483 -3.68659
LeftLeg  10.7476 32.6076 3.82008
LeftFoot  -5.32779 -0.159778 -3.27142
LeftToes  -0.247404 2.25955e-006 -3.67304e-008
224
root  -8.24194 34.7754 -30.4208 -165.765 73.3734 -175.22
RightUpLeg  -7.14805 -11.2957 -3.17372
RightLeg  -0.544319 6.3217 -0.465903
RightFoot  11.1526 -0.0815247 1.33728
RightToes  -35.9797 -0.18719 -0.291304
Spine  -2.5897 0.376505 -0.932608
Spine1  -5.16865 0.764435 -0.984783
HEad  -76.2594 -17.5134 10.3201
LeftShoulder1  -1.94126e-019 -3.10601e-018 -2.51263e-017
LeftArm  8.74764 35.0804 -69.146
LeftForeArm  51.6042 -75.6084 -41.6578
LeftHand  -0.195658 -3.01273 2.93569
RightShoulder  -4.96962e-017 0 -2.36833e-017
RightArm  11.2614 -25.66 74.1542
RightForeArm  67.7882 74.2135 31.8706
RightHand  -0.121551 0.274136 -2.53634
LeftUpLeg  -6.87109 14.5103 -3.66594
LeftLeg  9.87863 31.0046 3.19998
LeftFoot  -6.12015 -0.197648 -3.53428
LeftToes  0.874452 2.25955e-006 -3.67304e-008
